<svg fill="#000000" height="15px" width="15px" version="1.1" id="Layer_1" xmlns="http://www.w3.org/2000/svg" xmlns:xlink="http://www.w3.org/1999/xlink" viewBox="-158.75 -158.75 829.59 829.59" xml:space="preserve" stroke="#000000" stroke-width="51.2094"><g id="SVGRepo_bgCarrier" stroke-width="0"></g><g id="SVGRepo_tracerCarrier" stroke-linecap="round" stroke-linejoin="round" stroke="#CCCCCC" stroke-width="3.0725640000000003"></g><g id="SVGRepo_iconCarrier"> <g> <g> <g> <path d="M263.641,248.4L18.308,3.067c-4.16-4.053-10.987-3.947-15.04,0.32c-3.947,4.16-3.947,10.667,0,14.827l237.76,237.76 L3.268,493.733c-4.267,4.053-4.373,10.88-0.213,15.04c4.16,4.16,10.88,4.373,15.04,0.213c0.107-0.107,0.213-0.213,0.213-0.213 L263.641,263.44C267.801,259.28,267.801,252.56,263.641,248.4z"></path> <path d="M508.974,248.4L263.641,3.067c-4.267-4.053-10.987-3.947-15.04,0.213c-3.947,4.16-3.947,10.667,0,14.827l237.76,237.76 l-237.76,237.867c-4.267,4.053-4.373,10.88-0.213,15.04c4.16,4.16,10.88,4.373,15.04,0.213c0.107-0.107,0.213-0.213,0.213-0.213 L508.974,263.44C513.135,259.28,513.135,252.56,508.974,248.4z"></path> </g> </g> </g> </g></svg>